<?xml version="1.0" encoding="UTF-8" standalone="no"?>
<!DOCTYPE svg PUBLIC "-//W3C//DTD SVG 1.1//EN"
 "http://www.w3.org/Graphics/SVG/1.1/DTD/svg11.dtd">
<!-- Generated by graphviz version 2.43.0 (0)
 -->
<!-- Title: Core Types Pages: 1 -->
<svg width="300pt" height="113pt"
 viewBox="0.00 0.00 300.00 112.50" xmlns="http://www.w3.org/2000/svg" xmlns:xlink="http://www.w3.org/1999/xlink">
<g id="graph0" class="graph" transform="scale(1 1) rotate(0) translate(4 108.5)">
<title>Core Types</title>
<!-- Node2 -->
<g id="Node000002" class="node">
<title>Node2</title>
<g id="a_Node000002"><a xlink:href="group__cppemacs__conversions.html" target="_top" xlink:title="Conversion functions between C++ and Emacs values.">
<polygon fill="white" stroke="#666666" points="292,-101 190,-101 190,-82 292,-82 292,-101"/>
<text text-anchor="middle" x="241" y="-89" font-family="Helvetica,sans-Serif" font-size="10.00">Type Conversions</text>
</a>
</g>
</g>
<!-- Node1 -->
<g id="Node000001" class="node">
<title>Node1</title>
<g id="a_Node000001"><a xlink:title="Core wrapper type definitions for the Emacs module API.">
<polygon fill="#999999" stroke="#666666" points="70,-64 0,-64 0,-45 70,-45 70,-64"/>
<text text-anchor="middle" x="35" y="-52" font-family="Helvetica,sans-Serif" font-size="10.00">Core Types</text>
</a>
</g>
</g>
<!-- Node1&#45;&gt;Node2 -->
<g id="edge1" class="edge">
<title>Node1&#45;&gt;Node2</title>
<path fill="none" stroke="blueviolet" stroke-dasharray="5,2" d="M66.34,-64.01C73.41,-66.01 80.93,-67.98 88,-69.5 121.62,-76.75 159.96,-82.28 189.72,-85.98"/>
<text text-anchor="middle" x="130" y="-96.5" font-family="Helvetica,sans-Serif" font-size="10.00">cppemacs</text>
<text text-anchor="middle" x="130" y="-85.5" font-family="Helvetica,sans-Serif" font-size="10.00">cppemacs::detail</text>
</g>
<!-- Node4 -->
<g id="Node000004" class="node">
<title>Node4</title>
<g id="a_Node000004"><a xlink:href="group__cppemacs__literals.html" target="_top" xlink:title="Custom string literals for Emacs values.">
<polygon fill="white" stroke="#666666" points="267.5,-64 214.5,-64 214.5,-45 267.5,-45 267.5,-64"/>
<text text-anchor="middle" x="241" y="-52" font-family="Helvetica,sans-Serif" font-size="10.00">Literals</text>
</a>
</g>
</g>
<!-- Node1&#45;&gt;Node4 -->
<g id="edge3" class="edge">
<title>Node1&#45;&gt;Node4</title>
<path fill="none" stroke="blueviolet" stroke-dasharray="5,2" d="M70.15,-54.5C110.86,-54.5 177.99,-54.5 214.47,-54.5"/>
<text text-anchor="middle" x="130" y="-57.5" font-family="Helvetica,sans-Serif" font-size="10.00">cppemacs</text>
</g>
<!-- Node3 -->
<g id="Node000003" class="node">
<title>Node3</title>
<g id="a_Node000003"><a xlink:href="group__cppemacs__utilities.html" target="_top" xlink:title="Utility types built on top of the core cppemacs API.">
<polygon fill="white" stroke="#666666" points="268.5,-19 213.5,-19 213.5,0 268.5,0 268.5,-19"/>
<text text-anchor="middle" x="241" y="-7" font-family="Helvetica,sans-Serif" font-size="10.00">Utilities</text>
</a>
</g>
</g>
<!-- Node1&#45;&gt;Node3 -->
<g id="edge2" class="edge">
<title>Node1&#45;&gt;Node3</title>
<path fill="none" stroke="blueviolet" stroke-dasharray="5,2" d="M51.81,-44.83C61.82,-39.15 75.25,-32.36 88,-28.5 130.63,-15.59 182.55,-11.44 213.35,-10.11"/>
<text text-anchor="middle" x="130" y="-42.5" font-family="Helvetica,sans-Serif" font-size="10.00">cppemacs</text>
<text text-anchor="middle" x="130" y="-31.5" font-family="Helvetica,sans-Serif" font-size="10.00">cppemacs::detail</text>
</g>
</g>
</svg>
