<?xml version="1.0" encoding="UTF-8" standalone="no"?>
<!DOCTYPE svg PUBLIC "-//W3C//DTD SVG 1.1//EN"
 "http://www.w3.org/Graphics/SVG/1.1/DTD/svg11.dtd">
<!-- Generated by graphviz version 2.43.0 (0)
 -->
<!-- Title: Utilities Pages: 1 -->
<svg width="285pt" height="116pt"
 viewBox="0.00 0.00 285.00 115.50" xmlns="http://www.w3.org/2000/svg" xmlns:xlink="http://www.w3.org/1999/xlink">
<g id="graph0" class="graph" transform="scale(1 1) rotate(0) translate(4 111.5)">
<title>Utilities</title>
<!-- Node3 -->
<g id="Node000003" class="node">
<title>Node3</title>
<g id="a_Node000003"><a xlink:href="group__cppemacs__conversions.html" target="_top" xlink:title="Conversion functions between C++ and Emacs values.">
<polygon fill="white" stroke="#666666" points="277,-101 175,-101 175,-82 277,-82 277,-101"/>
<text text-anchor="middle" x="226" y="-89" font-family="Helvetica,sans-Serif" font-size="10.00">Type Conversions</text>
</a>
</g>
</g>
<!-- Node2 -->
<g id="Node000002" class="node">
<title>Node2</title>
<g id="a_Node000002"><a xlink:href="group__cppemacs__core.html" target="_top" xlink:title="Core wrapper type definitions for the Emacs module API.">
<polygon fill="white" stroke="#666666" points="261,-56 191,-56 191,-37 261,-37 261,-56"/>
<text text-anchor="middle" x="226" y="-44" font-family="Helvetica,sans-Serif" font-size="10.00">Core Types</text>
</a>
</g>
</g>
<!-- Node4 -->
<g id="Node000004" class="node">
<title>Node4</title>
<g id="a_Node000004"><a xlink:href="group__cppemacs__literals.html" target="_top" xlink:title="Custom string literals for Emacs values.">
<polygon fill="white" stroke="#666666" points="252.5,-19 199.5,-19 199.5,0 252.5,0 252.5,-19"/>
<text text-anchor="middle" x="226" y="-7" font-family="Helvetica,sans-Serif" font-size="10.00">Literals</text>
</a>
</g>
</g>
<!-- Node1 -->
<g id="Node000001" class="node">
<title>Node1</title>
<g id="a_Node000001"><a xlink:title="Utility types built on top of the core cppemacs API.">
<polygon fill="#999999" stroke="#666666" points="55,-56 0,-56 0,-37 55,-37 55,-56"/>
<text text-anchor="middle" x="27.5" y="-44" font-family="Helvetica,sans-Serif" font-size="10.00">Utilities</text>
</a>
</g>
</g>
<!-- Node1&#45;&gt;Node3 -->
<g id="edge2" class="edge">
<title>Node1&#45;&gt;Node3</title>
<path fill="none" stroke="blueviolet" stroke-dasharray="5,2" d="M44.01,-56.14C52.32,-60.88 62.9,-66.26 73,-69.5 106.01,-80.09 144.69,-85.59 174.77,-88.45"/>
<text text-anchor="middle" x="115" y="-99.5" font-family="Helvetica,sans-Serif" font-size="10.00">cppemacs</text>
<text text-anchor="middle" x="115" y="-88.5" font-family="Helvetica,sans-Serif" font-size="10.00">cppemacs::detail</text>
</g>
<!-- Node1&#45;&gt;Node2 -->
<g id="edge1" class="edge">
<title>Node1&#45;&gt;Node2</title>
<path fill="none" stroke="blueviolet" stroke-dasharray="5,2" d="M55,-46.5C90.09,-46.5 152.04,-46.5 190.68,-46.5"/>
<text text-anchor="middle" x="115" y="-60.5" font-family="Helvetica,sans-Serif" font-size="10.00">cppemacs</text>
<text text-anchor="middle" x="115" y="-49.5" font-family="Helvetica,sans-Serif" font-size="10.00">cppemacs::detail</text>
</g>
<!-- Node1&#45;&gt;Node4 -->
<g id="edge3" class="edge">
<title>Node1&#45;&gt;Node4</title>
<path fill="none" stroke="blueviolet" stroke-dasharray="5,2" d="M54.15,-36.97C60.27,-34.95 66.81,-32.98 73,-31.5 116.83,-21.03 169.03,-14.8 199.45,-11.77"/>
<text text-anchor="middle" x="115" y="-34.5" font-family="Helvetica,sans-Serif" font-size="10.00">cppemacs</text>
</g>
</g>
</svg>
