<?xml version="1.0" encoding="UTF-8" standalone="no"?>
<!DOCTYPE svg PUBLIC "-//W3C//DTD SVG 1.1//EN"
 "http://www.w3.org/Graphics/SVG/1.1/DTD/svg11.dtd">
<!-- Generated by graphviz version 2.43.0 (0)
 -->
<!-- Title: Literals Pages: 1 -->
<svg width="249pt" height="101pt"
 viewBox="0.00 0.00 249.00 101.00" xmlns="http://www.w3.org/2000/svg" xmlns:xlink="http://www.w3.org/1999/xlink">
<g id="graph0" class="graph" transform="scale(1 1) rotate(0) translate(4 97)">
<title>Literals</title>
<!-- Node3 -->
<g id="Node000003" class="node">
<title>Node3</title>
<g id="a_Node000003"><a xlink:href="group__cppemacs__conversions.html" target="_top" xlink:title="Conversion functions between C++ and Emacs values.">
<polygon fill="white" stroke="#666666" points="241,-93 139,-93 139,-74 241,-74 241,-93"/>
<text text-anchor="middle" x="190" y="-81" font-family="Helvetica,sans-Serif" font-size="10.00">Type Conversions</text>
</a>
</g>
</g>
<!-- Node2 -->
<g id="Node000002" class="node">
<title>Node2</title>
<g id="a_Node000002"><a xlink:href="group__cppemacs__core.html" target="_top" xlink:title="Core wrapper type definitions for the Emacs module API.">
<polygon fill="white" stroke="#666666" points="225,-56 155,-56 155,-37 225,-37 225,-56"/>
<text text-anchor="middle" x="190" y="-44" font-family="Helvetica,sans-Serif" font-size="10.00">Core Types</text>
</a>
</g>
</g>
<!-- Node1 -->
<g id="Node000001" class="node">
<title>Node1</title>
<g id="a_Node000001"><a xlink:title="Custom string literals for Emacs values.">
<polygon fill="#999999" stroke="#666666" points="53,-56 0,-56 0,-37 53,-37 53,-56"/>
<text text-anchor="middle" x="26.5" y="-44" font-family="Helvetica,sans-Serif" font-size="10.00">Literals</text>
</a>
</g>
</g>
<!-- Node1&#45;&gt;Node3 -->
<g id="edge2" class="edge">
<title>Node1&#45;&gt;Node3</title>
<path fill="none" stroke="blueviolet" stroke-dasharray="5,2" d="M53.07,-56.02C58.91,-58 65.13,-59.95 71,-61.5 93.06,-67.33 117.84,-72.19 138.97,-75.86"/>
<text text-anchor="middle" x="96" y="-74.5" font-family="Helvetica,sans-Serif" font-size="10.00">cppemacs</text>
</g>
<!-- Node1&#45;&gt;Node2 -->
<g id="edge1" class="edge">
<title>Node1&#45;&gt;Node2</title>
<path fill="none" stroke="blueviolet" stroke-dasharray="5,2" d="M53.09,-46.5C80.57,-46.5 124.39,-46.5 154.81,-46.5"/>
<text text-anchor="middle" x="96" y="-49.5" font-family="Helvetica,sans-Serif" font-size="10.00">cppemacs</text>
</g>
<!-- Node4 -->
<g id="Node000004" class="node">
<title>Node4</title>
<g id="a_Node000004"><a xlink:href="group__cppemacs__utilities.html" target="_top" xlink:title="Utility types built on top of the core cppemacs API.">
<polygon fill="white" stroke="#666666" points="217.5,-19 162.5,-19 162.5,0 217.5,0 217.5,-19"/>
<text text-anchor="middle" x="190" y="-7" font-family="Helvetica,sans-Serif" font-size="10.00">Utilities</text>
</a>
</g>
</g>
<!-- Node1&#45;&gt;Node4 -->
<g id="edge3" class="edge">
<title>Node1&#45;&gt;Node4</title>
<path fill="none" stroke="blueviolet" stroke-dasharray="5,2" d="M53.07,-36.98C58.91,-35 65.13,-33.05 71,-31.5 101.83,-23.36 137.95,-17.09 162.04,-13.36"/>
<text text-anchor="middle" x="96" y="-34.5" font-family="Helvetica,sans-Serif" font-size="10.00">cppemacs</text>
</g>
</g>
</svg>
