<?xml version="1.0" encoding="UTF-8" standalone="no"?>
<!DOCTYPE svg PUBLIC "-//W3C//DTD SVG 1.1//EN"
 "http://www.w3.org/Graphics/SVG/1.1/DTD/svg11.dtd">
<!-- Generated by graphviz version 2.43.0 (0)
 -->
<!-- Title: Type Conversions Pages: 1 -->
<svg width="300pt" height="113pt"
 viewBox="0.00 0.00 300.00 112.50" xmlns="http://www.w3.org/2000/svg" xmlns:xlink="http://www.w3.org/1999/xlink">
<g id="graph0" class="graph" transform="scale(1 1) rotate(0) translate(4 108.5)">
<title>Type Conversions</title>
<!-- Node1 -->
<g id="Node000001" class="node">
<title>Node1</title>
<g id="a_Node000001"><a xlink:title="Conversion functions between C++ and Emacs values.">
<polygon fill="#999999" stroke="#666666" points="102,-64 0,-64 0,-45 102,-45 102,-64"/>
<text text-anchor="middle" x="51" y="-52" font-family="Helvetica,sans-Serif" font-size="10.00">Type Conversions</text>
</a>
</g>
</g>
<!-- Node2 -->
<g id="Node000002" class="node">
<title>Node2</title>
<g id="a_Node000002"><a xlink:href="group__cppemacs__core.html" target="_top" xlink:title="Core wrapper type definitions for the Emacs module API.">
<polygon fill="white" stroke="#666666" points="292,-101 222,-101 222,-82 292,-82 292,-101"/>
<text text-anchor="middle" x="257" y="-89" font-family="Helvetica,sans-Serif" font-size="10.00">Core Types</text>
</a>
</g>
</g>
<!-- Node1&#45;&gt;Node2 -->
<g id="edge1" class="edge">
<title>Node1&#45;&gt;Node2</title>
<path fill="none" stroke="blueviolet" stroke-dasharray="5,2" d="M93.64,-64.08C102.33,-65.97 111.45,-67.87 120,-69.5 154.54,-76.1 194.25,-82.37 221.81,-86.52"/>
<text text-anchor="middle" x="162" y="-96.5" font-family="Helvetica,sans-Serif" font-size="10.00">cppemacs</text>
<text text-anchor="middle" x="162" y="-85.5" font-family="Helvetica,sans-Serif" font-size="10.00">cppemacs::detail</text>
</g>
<!-- Node4 -->
<g id="Node000004" class="node">
<title>Node4</title>
<g id="a_Node000004"><a xlink:href="group__cppemacs__literals.html" target="_top" xlink:title="Custom string literals for Emacs values.">
<polygon fill="white" stroke="#666666" points="283.5,-64 230.5,-64 230.5,-45 283.5,-45 283.5,-64"/>
<text text-anchor="middle" x="257" y="-52" font-family="Helvetica,sans-Serif" font-size="10.00">Literals</text>
</a>
</g>
</g>
<!-- Node1&#45;&gt;Node4 -->
<g id="edge3" class="edge">
<title>Node1&#45;&gt;Node4</title>
<path fill="none" stroke="blueviolet" stroke-dasharray="5,2" d="M102.17,-54.5C142.75,-54.5 198.24,-54.5 230.29,-54.5"/>
<text text-anchor="middle" x="162" y="-57.5" font-family="Helvetica,sans-Serif" font-size="10.00">cppemacs</text>
</g>
<!-- Node3 -->
<g id="Node000003" class="node">
<title>Node3</title>
<g id="a_Node000003"><a xlink:href="group__cppemacs__utilities.html" target="_top" xlink:title="Utility types built on top of the core cppemacs API.">
<polygon fill="white" stroke="#666666" points="284.5,-19 229.5,-19 229.5,0 284.5,0 284.5,-19"/>
<text text-anchor="middle" x="257" y="-7" font-family="Helvetica,sans-Serif" font-size="10.00">Utilities</text>
</a>
</g>
</g>
<!-- Node1&#45;&gt;Node3 -->
<g id="edge2" class="edge">
<title>Node1&#45;&gt;Node3</title>
<path fill="none" stroke="blueviolet" stroke-dasharray="5,2" d="M73.34,-44.91C86.54,-39.34 103.97,-32.63 120,-28.5 157.29,-18.9 201.65,-13.85 229.33,-11.43"/>
<text text-anchor="middle" x="162" y="-42.5" font-family="Helvetica,sans-Serif" font-size="10.00">cppemacs</text>
<text text-anchor="middle" x="162" y="-31.5" font-family="Helvetica,sans-Serif" font-size="10.00">cppemacs::detail</text>
</g>
</g>
</svg>
