<?xml version="1.0" encoding="UTF-8" standalone="no"?>
<!DOCTYPE svg PUBLIC "-//W3C//DTD SVG 1.1//EN"
 "http://www.w3.org/Graphics/SVG/1.1/DTD/svg11.dtd">
<!-- Generated by graphviz version 2.43.0 (0)
 -->
<!-- Title: cppemacs::vec_cell Pages: 1 -->
<svg width="120pt" height="152pt"
 viewBox="0.00 0.00 120.00 152.00" xmlns="http://www.w3.org/2000/svg" xmlns:xlink="http://www.w3.org/1999/xlink">
<g id="graph0" class="graph" transform="scale(1 1) rotate(0) translate(4 148)">
<title>cppemacs::vec_cell</title>
<!-- Node1 -->
<g id="node1" class="node">
<title>Node1</title>
<g id="a_node1"><a xlink:title=" ">
<polygon fill="#bfbfbf" stroke="black" points="0,-0.5 0,-19.5 112,-19.5 112,-0.5 0,-0.5"/>
<text text-anchor="middle" x="56" y="-7.5" font-family="Helvetica,sans-Serif" font-size="10.00">cppemacs::vec_cell</text>
</a>
</g>
</g>
<!-- Node2 -->
<g id="node2" class="node">
<title>Node2</title>
<g id="a_node2"><a xlink:href="structcppemacs_1_1cell.html" target="_top" xlink:title="General Emacs value wrapper.">
<polygon fill="none" stroke="black" points="11.5,-57.5 11.5,-76.5 100.5,-76.5 100.5,-57.5 11.5,-57.5"/>
<text text-anchor="middle" x="56" y="-64.5" font-family="Helvetica,sans-Serif" font-size="10.00">cppemacs::cell</text>
</a>
</g>
</g>
<!-- Node2&#45;&gt;Node1 -->
<g id="edge1" class="edge">
<title>Node2&#45;&gt;Node1</title>
<path fill="none" stroke="midnightblue" d="M56,-47.12C56,-37.82 56,-27.06 56,-19.71"/>
<polygon fill="midnightblue" stroke="midnightblue" points="52.5,-47.41 56,-57.41 59.5,-47.41 52.5,-47.41"/>
</g>
<!-- Node3 -->
<g id="node3" class="node">
<title>Node3</title>
<g id="a_node3"><a xlink:href="structcppemacs_1_1envw.html" target="_top" xlink:title="General Emacs environment wrapper.">
<polygon fill="none" stroke="black" points="7,-124.5 7,-143.5 105,-143.5 105,-124.5 7,-124.5"/>
<text text-anchor="middle" x="56" y="-131.5" font-family="Helvetica,sans-Serif" font-size="10.00">cppemacs::envw</text>
</a>
</g>
</g>
<!-- Node3&#45;&gt;Node2 -->
<g id="edge2" class="edge">
<title>Node3&#45;&gt;Node2</title>
<path fill="none" stroke="#9a32cd" stroke-dasharray="5,2" d="M56,-114.04C56,-101.67 56,-86.12 56,-76.63"/>
<polygon fill="#9a32cd" stroke="#9a32cd" points="52.5,-114.23 56,-124.23 59.5,-114.23 52.5,-114.23"/>
<text text-anchor="middle" x="64" y="-98" font-family="Helvetica,sans-Serif" font-size="10.00"> nv</text>
</g>
</g>
</svg>
